<svg width="59" height="89" viewBox="0 0 59 89" fill="none" xmlns="http://www.w3.org/2000/svg">
<g clip-path="url(#clip0_856_10973)">
<path d="M0.0012207 87.282C0.00319632 86.9444 0.105161 86.6149 0.294189 86.3352C0.483218 86.0554 0.750849 85.8379 1.06335 85.7101C1.37586 85.5823 1.71917 85.55 2.05005 85.6171C2.38093 85.6842 2.68452 85.8479 2.92249 86.0874C3.16045 86.3269 3.32218 86.6315 3.38721 86.9628C3.45223 87.2941 3.41763 87.6373 3.28784 87.949C3.15805 88.2606 2.93891 88.5269 2.65796 88.7141C2.377 88.9013 2.04685 89.0012 1.70923 89.001C1.48419 89.0003 1.26148 88.9553 1.05383 88.8686C0.846188 88.7818 0.657639 88.655 0.499023 88.4954C0.340408 88.3357 0.214815 88.1464 0.129395 87.9382C0.0439742 87.73 0.000431515 87.507 0.0012207 87.282ZM55.5942 87.46C55.5601 87.1164 55.6307 86.7706 55.797 86.468C55.9633 86.1654 56.2173 85.9203 56.5256 85.7649C56.8339 85.6095 57.182 85.5511 57.5242 85.5974C57.8663 85.6437 58.1864 85.7926 58.4423 86.0244C58.6981 86.2562 58.8777 86.56 58.9575 86.8959C59.0373 87.2318 59.0136 87.584 58.8893 87.9061C58.765 88.2282 58.5461 88.5052 58.2614 88.7004C57.9766 88.8957 57.6394 89.0001 57.2942 89C56.8706 88.9985 56.4625 88.8404 56.1484 88.5561C55.8344 88.2718 55.6367 87.8813 55.5933 87.46H55.5942ZM41.6942 87.46C41.6599 87.1162 41.7305 86.77 41.8967 86.4671C42.063 86.1642 42.3171 85.9188 42.6256 85.7632C42.9341 85.6076 43.2826 85.5491 43.625 85.5954C43.9674 85.6417 44.2877 85.7907 44.5438 86.0227C44.7999 86.2546 44.9796 86.5588 45.0594 86.8949C45.1393 87.2311 45.1154 87.5836 44.991 87.9059C44.8665 88.2283 44.6473 88.5053 44.3623 88.7006C44.0773 88.8959 43.7397 89.0003 43.3942 89C42.9719 88.9965 42.5659 88.8376 42.2535 88.5534C41.9412 88.2693 41.7445 87.88 41.7012 87.46H41.6942ZM27.7942 87.46C27.7598 87.1162 27.8304 86.77 27.9967 86.4671C28.163 86.1642 28.4171 85.9188 28.7256 85.7632C29.0341 85.6076 29.3826 85.5491 29.725 85.5954C30.0674 85.6417 30.3877 85.7907 30.6438 86.0227C30.8999 86.2546 31.0797 86.5588 31.1595 86.8949C31.2394 87.2311 31.2154 87.5836 31.0909 87.9059C30.9665 88.2283 30.7473 88.5053 30.4623 88.7006C30.1772 88.8959 29.8398 89.0003 29.4943 89C29.0721 88.9963 28.6661 88.8372 28.3538 88.5532C28.0415 88.2691 27.8448 87.8799 27.8013 87.46H27.7942ZM13.8942 87.46C13.8598 87.1162 13.9305 86.77 14.0968 86.4671C14.2631 86.1642 14.5172 85.9188 14.8257 85.7632C15.1342 85.6076 15.4825 85.5491 15.825 85.5954C16.1674 85.6417 16.4877 85.7907 16.7438 86.0227C16.9999 86.2546 17.1797 86.5588 17.2595 86.8949C17.3393 87.2311 17.3154 87.5836 17.1909 87.9059C17.0665 88.2283 16.8473 88.5053 16.5623 88.7006C16.2772 88.8959 15.9398 89.0003 15.5942 89C15.1721 88.9963 14.766 88.8372 14.4537 88.5532C14.1414 88.2691 13.9448 87.8799 13.9012 87.46H13.8942ZM55.5823 75.254C55.5489 74.9181 55.6157 74.5799 55.7744 74.2821C55.9331 73.9842 56.1764 73.74 56.4738 73.5804C56.7711 73.4207 57.109 73.3527 57.4449 73.3849C57.7809 73.4172 58.0998 73.5482 58.3613 73.7615C58.6229 73.9748 58.8154 74.2608 58.9146 74.5834C59.0137 74.906 59.015 75.2507 58.9183 75.5741C58.8217 75.8975 58.6315 76.1849 58.3716 76.4003C58.1117 76.6156 57.7939 76.7491 57.4583 76.784C57.3985 76.7904 57.3383 76.7938 57.2782 76.794C56.8571 76.7895 56.4525 76.6299 56.1416 76.3458C55.8307 76.0617 55.6355 75.673 55.5933 75.254H55.5823ZM41.6823 75.254C41.6489 74.9182 41.7157 74.58 41.8744 74.2822C42.033 73.9844 42.2763 73.7402 42.5736 73.5805C42.8709 73.4209 43.2088 73.3528 43.5447 73.385C43.8806 73.4172 44.1995 73.5481 44.4611 73.7613C44.7226 73.9745 44.9151 74.2604 45.0143 74.583C45.1135 74.9055 45.115 75.2502 45.0186 75.5735C44.9221 75.8969 44.732 76.1844 44.4723 76.3998C44.2126 76.6153 43.8948 76.7489 43.5592 76.784C43.4994 76.7904 43.4394 76.7938 43.3793 76.794C42.9594 76.7878 42.5563 76.6274 42.2469 76.3435C41.9376 76.0595 41.7433 75.6718 41.7012 75.254H41.6823ZM27.7822 75.254C27.7487 74.9179 27.8154 74.5795 27.974 74.2813C28.1326 73.9832 28.3761 73.7387 28.6736 73.5788C28.9711 73.4189 29.3092 73.3507 29.6454 73.3829C29.9816 73.415 30.3007 73.5461 30.5625 73.7594C30.8243 73.9728 31.0169 74.259 31.1162 74.5818C31.2155 74.9046 31.2169 75.2496 31.1202 75.5732C31.0236 75.8968 30.8333 76.1845 30.5732 76.4C30.3132 76.6155 29.9951 76.7491 29.6592 76.784C29.5994 76.7904 29.5394 76.7938 29.4792 76.794C29.0594 76.7875 28.6565 76.6271 28.3472 76.3432C28.0378 76.0593 27.8436 75.6717 27.8013 75.254H27.7822ZM13.8822 75.254C13.8486 74.9179 13.9155 74.5795 14.0741 74.2813C14.2327 73.9832 14.4761 73.7387 14.7736 73.5788C15.071 73.4189 15.4093 73.3507 15.7455 73.3829C16.0817 73.415 16.4008 73.5461 16.6626 73.7594C16.9244 73.9728 17.117 74.259 17.2163 74.5818C17.3156 74.9046 17.317 75.2496 17.2203 75.5732C17.1237 75.8968 16.9333 76.1845 16.6732 76.4C16.4132 76.6155 16.0952 76.7491 15.7593 76.784C15.6995 76.7904 15.6394 76.7938 15.5792 76.794C15.1594 76.7875 14.7566 76.6271 14.4473 76.3432C14.1379 76.0593 13.9436 75.6717 13.9012 75.254H13.8822ZM-0.0178223 75.076C-0.016044 74.7383 0.0857489 74.4088 0.274658 74.1289C0.463567 73.849 0.731212 73.6313 1.0437 73.5034C1.35619 73.3755 1.69957 73.3429 2.03052 73.41C2.36146 73.477 2.66513 73.6406 2.9032 73.8801C3.14127 74.1195 3.30306 74.4241 3.36816 74.7555C3.43327 75.0868 3.39868 75.43 3.26892 75.7417C3.13916 76.0535 2.92001 76.3198 2.63904 76.5071C2.35806 76.6943 2.02785 76.7942 1.69019 76.794C1.23926 76.7874 0.809082 76.6034 0.49292 76.2818C0.176758 75.9602 0.000120297 75.5269 0.0012207 75.076H-0.0178223ZM55.5752 62.259C55.542 61.9232 55.6091 61.585 55.7679 61.2873C55.9268 60.9895 56.1702 60.7455 56.4675 60.586C56.7649 60.4265 57.1028 60.3586 57.4387 60.391C57.7746 60.4233 58.0934 60.5545 58.3549 60.7678C58.6163 60.9812 58.8087 61.2672 58.9077 61.5898C59.0068 61.9124 59.008 62.2571 58.9114 62.5804C58.8147 62.9037 58.6244 63.1911 58.3645 63.4064C58.1046 63.6217 57.7868 63.7552 57.4512 63.79C57.3907 63.7964 57.33 63.7997 57.2692 63.8C56.8493 63.7937 56.4465 63.6331 56.1375 63.3489C55.8284 63.0648 55.6347 62.6768 55.5933 62.259H55.5752ZM41.6752 62.259C41.642 61.9232 41.7091 61.5851 41.8679 61.2874C42.0267 60.9897 42.2701 60.7457 42.5674 60.5862C42.8647 60.4267 43.2026 60.3587 43.5385 60.391C43.8743 60.4233 44.1931 60.5544 44.4546 60.7676C44.716 60.9809 44.9084 61.2668 45.0076 61.5893C45.1067 61.9118 45.1081 62.2565 45.0116 62.5798C44.9151 62.9031 44.7249 63.1906 44.4652 63.4059C44.2055 63.6213 43.8878 63.755 43.5522 63.79C43.4918 63.7964 43.431 63.7997 43.3702 63.8C42.9516 63.792 42.5505 63.6307 42.2429 63.3467C41.9353 63.0626 41.7425 62.6756 41.7012 62.259H41.6752ZM27.7753 62.259C27.7421 61.9232 27.8091 61.5851 27.9679 61.2874C28.1267 60.9897 28.3701 60.7457 28.6674 60.5862C28.9647 60.4267 29.3026 60.3587 29.6384 60.391C29.9743 60.4233 30.2931 60.5544 30.5546 60.7676C30.816 60.9809 31.0084 61.2668 31.1075 61.5893C31.2067 61.9118 31.2081 62.2565 31.1116 62.5798C31.0151 62.9031 30.8249 63.1906 30.5652 63.4059C30.3055 63.6213 29.9878 63.755 29.6522 63.79C29.5918 63.7964 29.531 63.7997 29.4702 63.8C29.0517 63.7915 28.6508 63.6301 28.3433 63.3462C28.0357 63.0622 27.843 62.6755 27.8013 62.259H27.7753ZM13.8752 62.259C13.8421 61.9232 13.9091 61.5851 14.0679 61.2874C14.2267 60.9897 14.47 60.7457 14.7673 60.5862C15.0646 60.4267 15.4025 60.3587 15.7384 60.391C16.0743 60.4233 16.3931 60.5544 16.6545 60.7676C16.916 60.9809 17.1084 61.2668 17.2075 61.5893C17.3067 61.9118 17.3081 62.2565 17.2115 62.5798C17.115 62.9031 16.9249 63.1906 16.6652 63.4059C16.4054 63.6213 16.0878 63.755 15.7522 63.79C15.6917 63.7964 15.631 63.7997 15.5702 63.8C15.1517 63.7915 14.7509 63.6301 14.4434 63.3462C14.1358 63.0622 13.943 62.6755 13.9012 62.259H13.8752ZM-0.0247803 62.081C-0.0228047 61.7433 0.07916 61.4139 0.268188 61.1341C0.457217 60.8544 0.724848 60.6369 1.03735 60.5091C1.34986 60.3813 1.69317 60.349 2.02405 60.4161C2.35493 60.4833 2.65852 60.6469 2.89648 60.8864C3.13445 61.1259 3.29618 61.4305 3.36121 61.7618C3.42623 62.0931 3.39163 62.4363 3.26184 62.748C3.13205 63.0596 2.91291 63.3259 2.63196 63.5131C2.351 63.7004 2.02085 63.8002 1.68323 63.8C1.23335 63.7916 0.8048 63.6066 0.490112 63.285C0.175424 62.9634 -0.000170276 62.5309 0.0012207 62.081H-0.0247803ZM-0.0247803 49.881C-0.0228047 49.5434 0.07916 49.2139 0.268188 48.9341C0.457217 48.6544 0.724848 48.4369 1.03735 48.3091C1.34986 48.1813 1.69317 48.149 2.02405 48.2161C2.35493 48.2833 2.65852 48.4469 2.89648 48.6864C3.13445 48.9259 3.29618 49.2305 3.36121 49.5618C3.42623 49.8931 3.39163 50.2363 3.26184 50.5479C3.13205 50.8596 2.91291 51.1259 2.63196 51.3131C2.351 51.5003 2.02085 51.6002 1.68323 51.6C1.23239 51.5918 0.80292 51.4062 0.488037 51.0835C0.173154 50.7608 -0.00174845 50.3269 0.0012207 49.876L-0.0247803 49.881ZM55.5682 50.059C55.5341 49.7154 55.6047 49.3696 55.771 49.067C55.9373 48.7644 56.1913 48.5193 56.4996 48.3639C56.8079 48.2085 57.156 48.1501 57.4982 48.1964C57.8403 48.2427 58.1604 48.3916 58.4163 48.6234C58.6721 48.8552 58.8517 49.159 58.9315 49.4949C59.0113 49.8308 58.9876 50.183 58.8633 50.5051C58.739 50.8272 58.5201 51.1042 58.2354 51.2994C57.9506 51.4947 57.6134 51.5991 57.2682 51.599C56.8483 51.591 56.4459 51.4294 56.1372 51.1446C55.8285 50.8599 55.635 50.4718 55.5933 50.054L55.5682 50.059ZM41.6682 50.059C41.6339 49.7151 41.7045 49.369 41.8707 49.0661C42.037 48.7632 42.2911 48.5178 42.5996 48.3622C42.9081 48.2066 43.2566 48.1481 43.599 48.1944C43.9414 48.2407 44.2617 48.3897 44.5178 48.6216C44.7739 48.8536 44.9536 49.1578 45.0334 49.4939C45.1133 49.8301 45.0894 50.1826 44.965 50.5049C44.8405 50.8273 44.6213 51.1043 44.3363 51.2996C44.0513 51.4949 43.7137 51.5993 43.3682 51.599C42.9497 51.5891 42.5493 51.4266 42.2423 51.142C41.9353 50.8575 41.7428 50.4705 41.7012 50.054L41.6682 50.059ZM27.7682 50.059C27.7338 49.7151 27.8044 49.369 27.9707 49.0661C28.137 48.7632 28.3912 48.5178 28.6997 48.3622C29.0082 48.2066 29.3566 48.1481 29.699 48.1944C30.0414 48.2407 30.3617 48.3897 30.6178 48.6216C30.8739 48.8536 31.0537 49.1578 31.1335 49.4939C31.2134 49.8301 31.1894 50.1826 31.0649 50.5049C30.9405 50.8273 30.7213 51.1043 30.4363 51.2996C30.1512 51.4949 29.8138 51.5993 29.4683 51.599C29.0498 51.5889 28.6495 51.4263 28.3425 51.1418C28.0356 50.8573 27.8431 50.4704 27.8013 50.054L27.7682 50.059ZM13.8682 50.059C13.8338 49.7151 13.9045 49.369 14.0708 49.0661C14.2371 48.7632 14.4912 48.5178 14.7997 48.3622C15.1082 48.2066 15.4565 48.1481 15.799 48.1944C16.1414 48.2407 16.4617 48.3897 16.7178 48.6216C16.9739 48.8536 17.1537 49.1578 17.2335 49.4939C17.3133 49.8301 17.2894 50.1826 17.1649 50.5049C17.0405 50.8273 16.8213 51.1043 16.5363 51.2996C16.2512 51.4949 15.9138 51.5993 15.5682 51.599C15.1498 51.5889 14.7495 51.4263 14.4425 51.1418C14.1355 50.8573 13.9431 50.4704 13.9012 50.054L13.8682 50.059ZM55.5563 39.308C55.5229 38.9722 55.5897 38.634 55.7484 38.3361C55.9071 38.0382 56.1504 37.794 56.4478 37.6344C56.7451 37.4747 57.083 37.4067 57.4189 37.4389C57.7549 37.4711 58.0738 37.6022 58.3353 37.8155C58.5969 38.0288 58.7894 38.3148 58.8885 38.6374C58.9877 38.96 58.989 39.3047 58.8923 39.6281C58.7957 39.9515 58.6054 40.239 58.3456 40.4543C58.0857 40.6696 57.7679 40.8031 57.4323 40.838C57.3725 40.8444 57.3123 40.8478 57.2522 40.848C56.8344 40.8369 56.435 40.6734 56.1294 40.3883C55.8238 40.1031 55.6332 39.716 55.5933 39.3L55.5563 39.308ZM41.6562 39.308C41.6229 38.9722 41.6897 38.634 41.8484 38.3362C42.007 38.0384 42.2503 37.7942 42.5476 37.6346C42.8449 37.4749 43.1828 37.4068 43.5187 37.439C43.8546 37.4712 44.1735 37.6021 44.4351 37.8153C44.6966 38.0285 44.889 38.3144 44.9883 38.6369C45.0875 38.9595 45.089 39.3041 44.9926 39.6275C44.8961 39.9509 44.706 40.2384 44.4463 40.4538C44.1866 40.6693 43.8688 40.8029 43.5332 40.838C43.4734 40.8444 43.4134 40.8478 43.3533 40.848C42.9367 40.8353 42.539 40.671 42.2349 40.386C41.9307 40.101 41.7409 39.7149 41.7012 39.3L41.6562 39.308ZM27.7562 39.308C27.724 38.9668 27.7955 38.6238 27.9617 38.324C28.1278 38.0242 28.3807 37.7817 28.6871 37.6281C28.9936 37.4746 29.3393 37.4172 29.6788 37.4636C30.0184 37.51 30.336 37.658 30.59 37.8881C30.844 38.1182 31.0225 38.4197 31.1022 38.753C31.1818 39.0864 31.1589 39.436 31.0363 39.7561C30.9137 40.0761 30.6971 40.3517 30.4152 40.5465C30.1332 40.7414 29.7989 40.8464 29.4562 40.848C29.0393 40.8351 28.6414 40.6709 28.3368 40.386C28.0322 40.1011 27.8419 39.715 27.8013 39.3L27.7562 39.308ZM13.8562 39.308C13.8239 38.9668 13.8956 38.6238 14.0618 38.324C14.2279 38.0242 14.4807 37.7817 14.7871 37.6281C15.0935 37.4746 15.4392 37.4172 15.7788 37.4636C16.1184 37.51 16.4361 37.658 16.6901 37.8881C16.9441 38.1182 17.1225 38.4197 17.2021 38.753C17.2818 39.0864 17.2588 39.436 17.1362 39.7561C17.0136 40.0761 16.7971 40.3517 16.5151 40.5465C16.2332 40.7414 15.899 40.8464 15.5563 40.848C15.1394 40.8351 14.7415 40.6709 14.4369 40.386C14.1323 40.1011 13.9419 39.715 13.9012 39.3L13.8562 39.308ZM-0.0438232 39.13C-0.0422423 38.7923 0.059379 38.4626 0.248169 38.1826C0.436959 37.9026 0.704495 37.6848 1.01697 37.5567C1.32944 37.4286 1.67289 37.3959 2.00391 37.4629C2.33492 37.5298 2.63866 37.6933 2.87683 37.9327C3.115 38.1721 3.27686 38.4767 3.34204 38.8081C3.40722 39.1395 3.37278 39.4827 3.24304 39.7945C3.11331 40.1063 2.89416 40.3727 2.61316 40.56C2.33216 40.7473 2.00189 40.8472 1.66418 40.847C1.21711 40.8337 0.793007 40.6461 0.4823 40.3244C0.171592 40.0027 -0.00106477 39.5722 0.0012207 39.125L-0.0438232 39.13ZM-0.0438232 26.923C-0.0418476 26.5854 0.0601171 26.2559 0.249146 25.9761C0.438174 25.6964 0.705805 25.4789 1.01831 25.3511C1.33082 25.2233 1.67425 25.191 2.00513 25.2581C2.33601 25.3253 2.6396 25.4889 2.87756 25.7284C3.11553 25.9679 3.27714 26.2725 3.34216 26.6038C3.40719 26.9351 3.37271 27.2783 3.24292 27.59C3.11313 27.9016 2.89387 28.1679 2.61292 28.3551C2.33196 28.5424 2.00181 28.6422 1.66418 28.642C1.21677 28.6287 0.79233 28.4408 0.481567 28.1187C0.170805 27.7965 -0.00158876 27.3656 0.0012207 26.918L-0.0438232 26.923ZM55.5492 27.101C55.5151 26.7574 55.5858 26.4116 55.7521 26.109C55.9183 25.8064 56.1723 25.5613 56.4806 25.4059C56.7889 25.2505 57.137 25.1921 57.4791 25.2384C57.8213 25.2847 58.1413 25.4336 58.3972 25.6654C58.6531 25.8972 58.8328 26.201 58.9126 26.5369C58.9924 26.8728 58.9685 27.225 58.8442 27.5471C58.72 27.8692 58.5012 28.1461 58.2164 28.3414C57.9317 28.5367 57.5945 28.6411 57.2493 28.641C56.8333 28.6286 56.436 28.4655 56.1313 28.182C55.8267 27.8985 55.6355 27.514 55.5933 27.1L55.5492 27.101ZM41.6492 27.101C41.6148 26.7572 41.6855 26.411 41.8518 26.1081C42.0181 25.8052 42.2722 25.5598 42.5807 25.4042C42.8892 25.2486 43.2375 25.1901 43.58 25.2364C43.9224 25.2827 44.2427 25.4317 44.4988 25.6637C44.7549 25.8956 44.9347 26.1997 45.0145 26.5359C45.0944 26.8721 45.0704 27.2246 44.9459 27.5469C44.8215 27.8692 44.6023 28.1463 44.3173 28.3416C44.0322 28.5369 43.6948 28.6413 43.3492 28.641C42.9347 28.6267 42.5393 28.4627 42.2363 28.1794C41.9334 27.8961 41.7432 27.5126 41.7012 27.1L41.6492 27.101ZM27.7493 27.101C27.7149 26.7572 27.7855 26.411 27.9518 26.1081C28.1181 25.8052 28.3722 25.5598 28.6807 25.4042C28.9892 25.2486 29.3375 25.1901 29.6799 25.2364C30.0223 25.2827 30.3427 25.4317 30.5988 25.6637C30.8548 25.8956 31.0347 26.1997 31.1145 26.5359C31.1943 26.8721 31.1705 27.2246 31.046 27.5469C30.9216 27.8692 30.7023 28.1463 30.4172 28.3416C30.1322 28.5369 29.7947 28.6413 29.4492 28.641C29.0347 28.6265 28.6395 28.4624 28.3365 28.1792C28.0336 27.8959 27.8435 27.5126 27.8013 27.1L27.7493 27.101ZM13.8492 27.101C13.8149 26.7572 13.8855 26.411 14.0518 26.1081C14.218 25.8052 14.4721 25.5598 14.7806 25.4042C15.0891 25.2486 15.4375 25.1901 15.7799 25.2364C16.1223 25.2827 16.4428 25.4317 16.6989 25.6637C16.9549 25.8956 17.1347 26.1997 17.2145 26.5359C17.2943 26.8721 17.2705 27.2246 17.146 27.5469C17.0215 27.8692 16.8024 28.1463 16.5173 28.3416C16.2323 28.5369 15.8947 28.6413 15.5492 28.641C15.1347 28.6265 14.7395 28.4624 14.4365 28.1792C14.1336 27.8959 13.9435 27.5126 13.9012 27.1L13.8492 27.101ZM55.5372 14.107C55.5031 13.7634 55.5737 13.4176 55.74 13.115C55.9062 12.8124 56.1603 12.5673 56.4686 12.4119C56.7769 12.2565 57.125 12.1981 57.4672 12.2444C57.8093 12.2907 58.1294 12.4396 58.3853 12.6714C58.6411 12.9032 58.8207 13.207 58.9005 13.5429C58.9803 13.8788 58.9565 14.231 58.8323 14.5531C58.708 14.8752 58.4891 15.1521 58.2043 15.3474C57.9196 15.5427 57.5824 15.6471 57.2372 15.647C56.8224 15.6316 56.4273 15.4663 56.125 15.1819C55.8227 14.8974 55.6339 14.5131 55.5933 14.1L55.5372 14.107ZM41.6372 14.107C41.6029 13.7632 41.6735 13.417 41.8397 13.1141C42.006 12.8112 42.2601 12.5658 42.5686 12.4102C42.8771 12.2546 43.2256 12.1961 43.568 12.2424C43.9104 12.2887 44.2307 12.4377 44.4868 12.6697C44.7429 12.9016 44.9226 13.2057 45.0024 13.5419C45.0823 13.8781 45.0584 14.2306 44.934 14.5529C44.8095 14.8752 44.5903 15.1523 44.3053 15.3476C44.0203 15.5429 43.6828 15.6473 43.3373 15.647C42.9239 15.6297 42.5306 15.4636 42.23 15.1793C41.9294 14.895 41.7416 14.5117 41.7012 14.1L41.6372 14.107ZM27.7372 14.107C27.7028 13.7632 27.7734 13.417 27.9397 13.1141C28.106 12.8112 28.3602 12.5658 28.6687 12.4102C28.9772 12.2546 29.3256 12.1961 29.668 12.2424C30.0104 12.2887 30.3307 12.4377 30.5868 12.6697C30.8429 12.9016 31.0227 13.2057 31.1025 13.5419C31.1824 13.8781 31.1584 14.2306 31.0339 14.5529C30.9095 14.8752 30.6903 15.1523 30.4053 15.3476C30.1202 15.5429 29.7828 15.6473 29.4373 15.647C29.0239 15.6295 28.6308 15.4633 28.3302 15.1791C28.0296 14.8949 27.8419 14.5117 27.8013 14.1L27.7372 14.107ZM13.8373 14.107C13.8029 13.7632 13.8735 13.417 14.0398 13.1141C14.2061 12.8112 14.4602 12.5658 14.7687 12.4102C15.0772 12.2546 15.4255 12.1961 15.7679 12.2424C16.1104 12.2887 16.4307 12.4377 16.6868 12.6697C16.9428 12.9016 17.1227 13.2057 17.2025 13.5419C17.2823 13.8781 17.2584 14.2306 17.1339 14.5529C17.0095 14.8752 16.7903 15.1523 16.5052 15.3476C16.2202 15.5429 15.8828 15.6473 15.5372 15.647C15.1239 15.6295 14.7309 15.4633 14.4303 15.1791C14.1297 14.8949 13.9418 14.5117 13.9012 14.1L13.8373 14.107ZM-0.0627441 13.929C-0.0609659 13.5913 0.040705 13.2617 0.229614 12.9819C0.418524 12.702 0.686168 12.4843 0.998657 12.3564C1.31115 12.2285 1.65453 12.196 1.98547 12.263C2.31642 12.33 2.62009 12.4936 2.85815 12.7331C3.09622 12.9725 3.25802 13.2771 3.32312 13.6085C3.38822 13.9398 3.35376 14.283 3.224 14.5947C3.09424 14.9065 2.87497 15.1728 2.59399 15.3601C2.31302 15.5473 1.98293 15.6472 1.64526 15.647C1.20128 15.6291 0.781597 15.4394 0.474854 15.1179C0.16811 14.7964 -0.00173348 14.3683 0.0012207 13.924L-0.0627441 13.929ZM55.5303 1.90197C55.4961 1.55841 55.5668 1.21259 55.733 0.910009C55.8993 0.607429 56.1533 0.362285 56.4615 0.206884C56.7698 0.0514833 57.1181 -0.00688874 57.4602 0.0394344C57.8023 0.0857576 58.1223 0.234602 58.3782 0.466391C58.634 0.698179 58.8137 1.00203 58.8936 1.33793C58.9734 1.67382 58.9496 2.02601 58.8253 2.34812C58.701 2.67023 58.4821 2.94714 58.1974 3.1424C57.9127 3.33766 57.5755 3.4421 57.2302 3.44198C56.8174 3.42526 56.4244 3.26006 56.1237 2.97675C55.8229 2.69345 55.6346 2.31108 55.5933 1.89997L55.5303 1.90197ZM41.6302 1.90197C41.5959 1.55815 41.6665 1.212 41.8328 0.909109C41.999 0.606218 42.2531 0.360814 42.5616 0.205206C42.8701 0.0495976 43.2185 -0.00891031 43.5609 0.037405C43.9033 0.0837203 44.2237 0.232676 44.4797 0.464651C44.7358 0.696627 44.9157 1.00074 44.9955 1.33692C45.0753 1.6731 45.0515 2.02557 44.927 2.34791C44.8025 2.67024 44.5834 2.94731 44.2983 3.14261C44.0133 3.33792 43.6757 3.44229 43.3302 3.44198C42.9188 3.42338 42.5277 3.25735 42.2286 2.97422C41.9295 2.69109 41.7423 2.30977 41.7012 1.89997L41.6302 1.90197ZM27.7302 1.90197C27.6959 1.55815 27.7665 1.212 27.9327 0.909109C28.099 0.606218 28.3531 0.360814 28.6616 0.205206C28.9701 0.0495976 29.3186 -0.00891031 29.661 0.037405C30.0034 0.0837203 30.3238 0.232676 30.5798 0.464651C30.8359 0.696627 31.0156 1.00074 31.0955 1.33692C31.1753 1.6731 31.1514 2.02557 31.027 2.34791C30.9025 2.67024 30.6834 2.94731 30.3983 3.14261C30.1133 3.33792 29.7757 3.44229 29.4302 3.44198C29.0188 3.42318 28.6279 3.25706 28.3289 2.97397C28.0298 2.69088 27.8426 2.30969 27.8013 1.89997L27.7302 1.90197ZM13.8302 1.90197C13.7958 1.55815 13.8664 1.212 14.0327 0.909109C14.199 0.606218 14.4531 0.360814 14.7616 0.205206C15.0701 0.0495976 15.4186 -0.00891031 15.761 0.037405C16.1034 0.0837203 16.4237 0.232676 16.6798 0.464651C16.9359 0.696627 17.1156 1.00074 17.1954 1.33692C17.2753 1.6731 17.2514 2.02557 17.127 2.34791C17.0025 2.67024 16.7833 2.94731 16.4983 3.14261C16.2133 3.33792 15.8758 3.44229 15.5303 3.44198C15.1189 3.42318 14.728 3.25706 14.429 2.97397C14.1299 2.69088 13.9426 2.30969 13.9012 1.89997L13.8302 1.90197ZM-0.0698242 1.72397C-0.0682433 1.38627 0.033378 1.0566 0.222168 0.776587C0.410958 0.496576 0.678494 0.278781 0.990967 0.150686C1.30344 0.0225916 1.64689 -0.0100487 1.97791 0.0568752C2.30892 0.123799 2.61266 0.287285 2.85083 0.526709C3.089 0.766132 3.25086 1.07075 3.31604 1.40211C3.38122 1.73346 3.34678 2.07671 3.21704 2.38851C3.08731 2.70031 2.86816 2.96667 2.58716 3.15398C2.30616 3.3413 1.97589 3.44116 1.63818 3.44097C1.19569 3.42108 0.778081 3.23067 0.4729 2.90964C0.16772 2.58862 -0.00129355 2.1619 0.0012207 1.71897L-0.0698242 1.72397Z" fill="#060315"/>
</g>
<defs>
<clipPath id="clip0_856_10973">
<rect width="59" height="89.001" fill="white"/>
</clipPath>
</defs>
</svg>
